#!OML:ASF F:\VICON\USERDATA\INSTALL\rory3\rory3.ASF
:FULLY-SPECIFIED
:DEGREES
727
root 4.28011 15.6023 2.17876 24.1161 -5.72934 1.25183
lowerback 12.3846 -2.30495 3.73633
upperback 3.72538 -2.59316 -0.27489
thorax -3.20467 -1.28833 -2.00189
lowerneck -14.6544 -0.707495 -2.28728
upperneck 37.7703 0.515893 -2.52503
head 15.8599 -0.498505 -0.600906
rclavicle 3.47376e-014 1.19768e-014
rhumerus -62.5281 61.7383 -62.9531
rradius 68.6453
rwrist -17.6533
rhand -6.48766 -39.0689
rfingers 7.12502
rthumb 19.3635 -68.1248
lclavicle 3.47376e-014 1.19768e-014
lhumerus -43.7481 -72.4373 40.328
lradius 65.0458
lwrist 43.9168
lhand -15.681 -27.537
lfingers 7.12502
lthumb 10.5079 2.18035
rfemur -83.6042 -7.03733 22.7135
rtibia 45.2994
rfoot 37.9 -0.970128
rtoes 4.02206
lfemur -58.9094 -4.85378 -29.3953
ltibia 62.2012
lfoot -25.4679 7.47635
ltoes 11.6504
728
root 4.28178 15.6022 2.18083 24.1636 -5.67487 1.21945
lowerback 12.321 -2.32163 3.81249
upperback 3.70672 -2.60756 -0.256462
thorax -3.19276 -1.2957 -2.02499
lowerneck -14.6254 -0.735721 -2.42937
upperneck 37.6949 0.469386 -2.40094
head 15.814 -0.519651 -0.52859
rclavicle 2.79789e-014 -1.20265e-014
rhumerus -62.675 62.7739 -62.8468
rradius 69.0159
rwrist -18.5531
rhand -6.7026 -39.2317
rfingers 7.12502
rthumb 19.1568 -68.3082
lclavicle 2.79789e-014 -1.20265e-014
lhumerus -43.7281 -72.4246 40.3551
lradius 65.0134
lwrist 43.9451
lhand -16.0935 -27.7247
lfingers 7.12502
lthumb 10.1099 2.0124
rfemur -83.6451 -7.11126 22.8328
rtibia 45.2861
rfoot 37.904 -0.941851
rtoes 4.11658
lfemur -58.9484 -4.88735 -29.3531
ltibia 62.2068
lfoot -25.5217 7.40854
ltoes 10.4483
729
root 4.27959 15.6003 2.17681 24.1467 -5.67253 1.19541
lowerback 12.4312 -2.29369 3.81227
upperback 3.69478 -2.56622 -0.268826
thorax -3.26316 -1.27648 -2.04019
lowerneck -14.6069 -0.7755 -2.40176
upperneck 37.6101 0.402319 -2.40665
head 15.7661 -0.542474 -0.545802
rclavicle 2.56929e-014 -1.2921e-015
rhumerus -62.6073 61.9918 -63.0398
rradius 68.6247
rwrist -17.7021
rhand -6.73541 -38.8084
rfingers 7.12502
rthumb 19.1253 -67.8881
lclavicle 2.56929e-014 -1.2921e-015
lhumerus -43.6024 -72.63 40.2167
lradius 65.0321
lwrist 44.0288
lhand -16.8331 -28.0281
lfingers 7.12502
lthumb 9.39641 1.74246
rfemur -83.6028 -7.04015 22.7832
rtibia 45.2529
rfoot 37.9085 -1.71958
rtoes 5.67366
lfemur -58.9575 -4.83862 -29.3313
ltibia 62.2063
lfoot -25.4953 7.35776
ltoes 12.9079
730
root 4.27994 15.6034 2.17701 24.1026 -5.6696 1.16063
lowerback 12.454 -2.23109 3.87722
upperback 3.74129 -2.47799 -0.319445
thorax -3.22585 -1.23186 -2.14357
lowerneck -14.7153 -0.849064 -2.24661
upperneck 37.6889 0.271173 -2.45847
head 15.8308 -0.5824 -0.620264
rclavicle 3.03147e-014 -2.78299e-015
rhumerus -62.5163 61.615 -62.9607
rradius 68.5421
rwrist -17.4604
rhand -6.40845 -38.4067
rfingers 7.12502
rthumb 19.4397 -67.455
lclavicle 3.03147e-014 -2.78299e-015
lhumerus -43.0032 -72.7469 39.6345
lradius 65.0429
lwrist 44.0714
lhand -16.5061 -27.6951
lfingers 7.12502
lthumb 9.71192 2.06103
rfemur -83.5219 -7.05643 22.85
rtibia 45.2176
rfoot 37.894 -2.20801
rtoes 6.70884
lfemur -58.8804 -4.79456 -29.3114
ltibia 62.1877
lfoot -25.509 7.32429
ltoes 12.787
731
root 4.28167 15.6116 2.17833 24.0944 -5.6632 1.13329
lowerback 12.3938 -2.19139 3.9355
upperback 3.76974 -2.42329 -0.349336
thorax -3.16299 -1.2036 -2.21855
lowerneck -14.7996 -0.876621 -2.08092
upperneck 37.8308 0.231341 -2.58175
head 15.9228 -0.59372 -0.713126
rclavicle 2.13197e-014 -2.83268e-015
rhumerus -62.4215 61.3137 -62.8755
rradius 68.5102
rwrist -17.2554
rhand -6.46578 -38.2676
rfingers 7.12502
rthumb 19.3845 -67.3214
lclavicle 2.13197e-014 -2.83268e-015
lhumerus -42.6101 -72.7145 39.2874
lradius 64.9964
lwrist 44.0345
lhand -15.3337 -27.163
lfingers 7.12502
lthumb 10.8428 2.53706
rfemur -83.4748 -7.11756 22.9674
rtibia 45.191
rfoot 37.9027 -2.07394
rtoes 6.29127
lfemur -58.8248 -4.77871 -29.295
ltibia 62.1517
lfoot -25.5422 7.33802
ltoes 10.94
732
root 4.28004 15.6104 2.17574 24.0518 -5.70229 1.19753
lowerback 12.4913 -2.17657 3.83304
upperback 3.74985 -2.41257 -0.374674
thorax -3.23344 -1.19948 -2.1856
lowerneck -14.734 -0.869493 -1.98098
upperneck 37.8114 0.260227 -2.7196
head 15.8974 -0.585761 -0.784525
rclavicle -3.29486e-014 -1.67973e-014
rhumerus -62.6131 61.333 -62.9891
rradius 68.631
rwrist -17.4094
rhand -6.74581 -38.2974
rfingers 7.12502
rthumb 19.1153 -67.3781
lclavicle -3.29486e-014 -1.67973e-014
lhumerus -42.6637 -72.5368 39.4012
lradius 64.8882
lwrist 43.7366
lhand -14.976 -27.2127
lfingers 7.12502
lthumb 11.1879 2.46901
rfemur -83.4374 -7.09245 22.8664
rtibia 45.1888
rfoot 37.9238 -2.16118
rtoes 6.04924
lfemur -58.8144 -4.77378 -29.3609
ltibia 62.1203
lfoot -25.5127 7.53645
ltoes 9.48825
733
root 4.27871 15.6021 2.17513 24.0444 -5.75586 1.2924
lowerback 12.5646 -2.17732 3.69977
upperback 3.71512 -2.42726 -0.402559
thorax -3.30695 -1.20799 -2.13446
lowerneck -14.6856 -0.863232 -1.93127
upperneck 37.7715 0.292794 -2.82892
head 15.8662 -0.579637 -0.833745
rclavicle -4.62174e-015 6.95746e-015
rhumerus -62.7634 61.4124 -63.0932
rradius 68.7231
rwrist -17.6375
rhand -7.09979 -38.2111
rfingers 7.12502
rthumb 18.7748 -67.325
lclavicle -4.62174e-015 6.95746e-015
lhumerus -42.9034 -72.228 39.6999
lradius 64.7719
lwrist 43.3721
lhand -14.8182 -27.2456
lfingers 7.12502
lthumb 11.3401 2.4278
rfemur -83.4734 -7.07624 22.7455
rtibia 45.1856
rfoot 37.8286 -2.21898
rtoes 6.05158
lfemur -58.8513 -4.77123 -29.4705
ltibia 62.0976
lfoot -25.4486 7.67767
ltoes 8.86145
